<mxfile host="app.diagrams.net" modified="2021-09-15T18:25:19.543Z" agent="5.0 (Windows NT 10.0; Win64; x64) AppleWebKit/537.36 (KHTML, like Gecko) Chrome/93.0.4577.63 Safari/537.36" etag="h58GAZCLyrdmQusSkknm" version="15.2.7" type="github">
  <diagram id="_fbWL5qbUTQsTGgUPnSX" name="Page-1">
    <mxGraphModel dx="1038" dy="489" grid="1" gridSize="10" guides="1" tooltips="1" connect="1" arrows="1" fold="1" page="1" pageScale="1" pageWidth="827" pageHeight="1169" math="0" shadow="0">
      <root>
        <mxCell id="0" />
        <mxCell id="1" parent="0" />
        <mxCell id="wr6Mb2dVWBMzEhikk02v-3" value="" style="edgeStyle=orthogonalEdgeStyle;rounded=0;orthogonalLoop=1;jettySize=auto;html=1;" parent="1" source="wr6Mb2dVWBMzEhikk02v-1" target="wr6Mb2dVWBMzEhikk02v-2" edge="1">
          <mxGeometry relative="1" as="geometry" />
        </mxCell>
        <mxCell id="wr6Mb2dVWBMzEhikk02v-1" value="start" style="rounded=1;whiteSpace=wrap;html=1;" parent="1" vertex="1">
          <mxGeometry x="340" y="10" width="120" height="60" as="geometry" />
        </mxCell>
        <mxCell id="wr6Mb2dVWBMzEhikk02v-5" value="" style="edgeStyle=orthogonalEdgeStyle;rounded=0;orthogonalLoop=1;jettySize=auto;html=1;" parent="1" source="wr6Mb2dVWBMzEhikk02v-2" target="wr6Mb2dVWBMzEhikk02v-4" edge="1">
          <mxGeometry relative="1" as="geometry" />
        </mxCell>
        <mxCell id="wr6Mb2dVWBMzEhikk02v-2" value="m" style="shape=parallelogram;perimeter=parallelogramPerimeter;whiteSpace=wrap;html=1;fixedSize=1;" parent="1" vertex="1">
          <mxGeometry x="340" y="100" width="120" height="60" as="geometry" />
        </mxCell>
        <mxCell id="wr6Mb2dVWBMzEhikk02v-7" value="false" style="edgeStyle=orthogonalEdgeStyle;rounded=0;orthogonalLoop=1;jettySize=auto;html=1;" parent="1" source="wr6Mb2dVWBMzEhikk02v-4" target="wr6Mb2dVWBMzEhikk02v-6" edge="1">
          <mxGeometry relative="1" as="geometry" />
        </mxCell>
        <mxCell id="wr6Mb2dVWBMzEhikk02v-10" value="true" style="edgeStyle=orthogonalEdgeStyle;rounded=0;orthogonalLoop=1;jettySize=auto;html=1;" parent="1" source="wr6Mb2dVWBMzEhikk02v-4" target="wr6Mb2dVWBMzEhikk02v-9" edge="1">
          <mxGeometry relative="1" as="geometry" />
        </mxCell>
        <mxCell id="wr6Mb2dVWBMzEhikk02v-4" value="m&amp;gt;=0 &amp;amp;&amp;amp; m&amp;lt;=100" style="rhombus;whiteSpace=wrap;html=1;" parent="1" vertex="1">
          <mxGeometry x="330" y="190" width="140" height="130" as="geometry" />
        </mxCell>
        <mxCell id="wr6Mb2dVWBMzEhikk02v-8" style="edgeStyle=orthogonalEdgeStyle;rounded=0;orthogonalLoop=1;jettySize=auto;html=1;exitX=0.5;exitY=0;exitDx=0;exitDy=0;entryX=1;entryY=0.5;entryDx=0;entryDy=0;" parent="1" source="wr6Mb2dVWBMzEhikk02v-6" target="wr6Mb2dVWBMzEhikk02v-2" edge="1">
          <mxGeometry relative="1" as="geometry">
            <mxPoint x="580" y="110" as="targetPoint" />
            <Array as="points">
              <mxPoint x="580" y="130" />
            </Array>
          </mxGeometry>
        </mxCell>
        <mxCell id="wr6Mb2dVWBMzEhikk02v-6" value="select another number" style="shape=document;whiteSpace=wrap;html=1;boundedLbl=1;" parent="1" vertex="1">
          <mxGeometry x="520" y="215" width="120" height="80" as="geometry" />
        </mxCell>
        <mxCell id="wr6Mb2dVWBMzEhikk02v-13" value="true" style="edgeStyle=orthogonalEdgeStyle;rounded=0;orthogonalLoop=1;jettySize=auto;html=1;" parent="1" source="wr6Mb2dVWBMzEhikk02v-9" target="wr6Mb2dVWBMzEhikk02v-11" edge="1">
          <mxGeometry relative="1" as="geometry" />
        </mxCell>
        <mxCell id="wr6Mb2dVWBMzEhikk02v-15" value="false" style="edgeStyle=orthogonalEdgeStyle;rounded=0;orthogonalLoop=1;jettySize=auto;html=1;" parent="1" source="wr6Mb2dVWBMzEhikk02v-9" target="wr6Mb2dVWBMzEhikk02v-14" edge="1">
          <mxGeometry relative="1" as="geometry" />
        </mxCell>
        <mxCell id="wr6Mb2dVWBMzEhikk02v-9" value="m&amp;gt;90" style="rhombus;whiteSpace=wrap;html=1;" parent="1" vertex="1">
          <mxGeometry x="325" y="350" width="145" height="110" as="geometry" />
        </mxCell>
        <mxCell id="wr6Mb2dVWBMzEhikk02v-40" style="edgeStyle=orthogonalEdgeStyle;rounded=0;orthogonalLoop=1;jettySize=auto;html=1;entryX=1;entryY=0.667;entryDx=0;entryDy=0;entryPerimeter=0;" parent="1" source="wr6Mb2dVWBMzEhikk02v-11" target="wr6Mb2dVWBMzEhikk02v-34" edge="1">
          <mxGeometry relative="1" as="geometry">
            <mxPoint x="770" y="1260" as="targetPoint" />
            <Array as="points">
              <mxPoint x="790" y="405" />
              <mxPoint x="790" y="1260" />
            </Array>
          </mxGeometry>
        </mxCell>
        <mxCell id="wr6Mb2dVWBMzEhikk02v-11" value="&quot;A&quot;" style="shape=document;whiteSpace=wrap;html=1;boundedLbl=1;" parent="1" vertex="1">
          <mxGeometry x="520" y="365" width="120" height="80" as="geometry" />
        </mxCell>
        <mxCell id="wr6Mb2dVWBMzEhikk02v-18" value="true" style="edgeStyle=orthogonalEdgeStyle;rounded=0;orthogonalLoop=1;jettySize=auto;html=1;" parent="1" source="wr6Mb2dVWBMzEhikk02v-14" target="wr6Mb2dVWBMzEhikk02v-16" edge="1">
          <mxGeometry relative="1" as="geometry" />
        </mxCell>
        <mxCell id="wr6Mb2dVWBMzEhikk02v-20" value="false" style="edgeStyle=orthogonalEdgeStyle;rounded=0;orthogonalLoop=1;jettySize=auto;html=1;" parent="1" source="wr6Mb2dVWBMzEhikk02v-14" target="wr6Mb2dVWBMzEhikk02v-19" edge="1">
          <mxGeometry relative="1" as="geometry" />
        </mxCell>
        <mxCell id="wr6Mb2dVWBMzEhikk02v-14" value="m&amp;gt;80" style="rhombus;whiteSpace=wrap;html=1;" parent="1" vertex="1">
          <mxGeometry x="325" y="530" width="150" height="100" as="geometry" />
        </mxCell>
        <mxCell id="wr6Mb2dVWBMzEhikk02v-39" style="edgeStyle=orthogonalEdgeStyle;rounded=0;orthogonalLoop=1;jettySize=auto;html=1;entryX=1;entryY=0.75;entryDx=0;entryDy=0;" parent="1" source="wr6Mb2dVWBMzEhikk02v-16" target="wr6Mb2dVWBMzEhikk02v-34" edge="1">
          <mxGeometry relative="1" as="geometry">
            <mxPoint x="760" y="1260" as="targetPoint" />
            <Array as="points">
              <mxPoint x="760" y="580" />
              <mxPoint x="760" y="1260" />
              <mxPoint x="640" y="1260" />
            </Array>
          </mxGeometry>
        </mxCell>
        <mxCell id="wr6Mb2dVWBMzEhikk02v-16" value="&quot;B&quot;" style="shape=document;whiteSpace=wrap;html=1;boundedLbl=1;" parent="1" vertex="1">
          <mxGeometry x="510" y="540" width="120" height="80" as="geometry" />
        </mxCell>
        <mxCell id="wr6Mb2dVWBMzEhikk02v-22" value="true" style="edgeStyle=orthogonalEdgeStyle;rounded=0;orthogonalLoop=1;jettySize=auto;html=1;" parent="1" source="wr6Mb2dVWBMzEhikk02v-19" target="wr6Mb2dVWBMzEhikk02v-21" edge="1">
          <mxGeometry relative="1" as="geometry" />
        </mxCell>
        <mxCell id="wr6Mb2dVWBMzEhikk02v-24" value="false" style="edgeStyle=orthogonalEdgeStyle;rounded=0;orthogonalLoop=1;jettySize=auto;html=1;" parent="1" source="wr6Mb2dVWBMzEhikk02v-19" target="wr6Mb2dVWBMzEhikk02v-23" edge="1">
          <mxGeometry relative="1" as="geometry" />
        </mxCell>
        <mxCell id="wr6Mb2dVWBMzEhikk02v-19" value="m&amp;gt;70" style="rhombus;whiteSpace=wrap;html=1;" parent="1" vertex="1">
          <mxGeometry x="325" y="720" width="150" height="80" as="geometry" />
        </mxCell>
        <mxCell id="wr6Mb2dVWBMzEhikk02v-38" style="edgeStyle=orthogonalEdgeStyle;rounded=0;orthogonalLoop=1;jettySize=auto;html=1;entryX=1;entryY=0.75;entryDx=0;entryDy=0;" parent="1" source="wr6Mb2dVWBMzEhikk02v-21" target="wr6Mb2dVWBMzEhikk02v-34" edge="1">
          <mxGeometry relative="1" as="geometry">
            <mxPoint x="720" y="1260" as="targetPoint" />
            <Array as="points">
              <mxPoint x="730" y="760" />
              <mxPoint x="730" y="1260" />
              <mxPoint x="640" y="1260" />
            </Array>
          </mxGeometry>
        </mxCell>
        <mxCell id="wr6Mb2dVWBMzEhikk02v-21" value="&quot;C&quot;" style="shape=document;whiteSpace=wrap;html=1;boundedLbl=1;" parent="1" vertex="1">
          <mxGeometry x="510" y="720" width="120" height="80" as="geometry" />
        </mxCell>
        <mxCell id="wr6Mb2dVWBMzEhikk02v-26" value="true" style="edgeStyle=orthogonalEdgeStyle;rounded=0;orthogonalLoop=1;jettySize=auto;html=1;" parent="1" source="wr6Mb2dVWBMzEhikk02v-23" target="wr6Mb2dVWBMzEhikk02v-25" edge="1">
          <mxGeometry relative="1" as="geometry" />
        </mxCell>
        <mxCell id="wr6Mb2dVWBMzEhikk02v-29" value="false" style="edgeStyle=orthogonalEdgeStyle;rounded=0;orthogonalLoop=1;jettySize=auto;html=1;" parent="1" source="wr6Mb2dVWBMzEhikk02v-23" target="wr6Mb2dVWBMzEhikk02v-28" edge="1">
          <mxGeometry relative="1" as="geometry" />
        </mxCell>
        <mxCell id="wr6Mb2dVWBMzEhikk02v-23" value="m&amp;gt;60" style="rhombus;whiteSpace=wrap;html=1;" parent="1" vertex="1">
          <mxGeometry x="325" y="900" width="150" height="70" as="geometry" />
        </mxCell>
        <mxCell id="wr6Mb2dVWBMzEhikk02v-37" style="edgeStyle=orthogonalEdgeStyle;rounded=0;orthogonalLoop=1;jettySize=auto;html=1;entryX=1;entryY=0.75;entryDx=0;entryDy=0;" parent="1" source="wr6Mb2dVWBMzEhikk02v-25" target="wr6Mb2dVWBMzEhikk02v-34" edge="1">
          <mxGeometry relative="1" as="geometry">
            <mxPoint x="720" y="1260" as="targetPoint" />
            <Array as="points">
              <mxPoint x="700" y="935" />
              <mxPoint x="700" y="1260" />
              <mxPoint x="640" y="1260" />
            </Array>
          </mxGeometry>
        </mxCell>
        <mxCell id="wr6Mb2dVWBMzEhikk02v-25" value="&quot;D&quot;" style="shape=document;whiteSpace=wrap;html=1;boundedLbl=1;" parent="1" vertex="1">
          <mxGeometry x="510" y="895" width="120" height="80" as="geometry" />
        </mxCell>
        <mxCell id="wr6Mb2dVWBMzEhikk02v-31" value="true" style="edgeStyle=orthogonalEdgeStyle;rounded=0;orthogonalLoop=1;jettySize=auto;html=1;" parent="1" source="wr6Mb2dVWBMzEhikk02v-28" target="wr6Mb2dVWBMzEhikk02v-30" edge="1">
          <mxGeometry relative="1" as="geometry">
            <Array as="points">
              <mxPoint x="470" y="1080" />
              <mxPoint x="470" y="1080" />
            </Array>
          </mxGeometry>
        </mxCell>
        <mxCell id="wr6Mb2dVWBMzEhikk02v-33" value="false" style="edgeStyle=orthogonalEdgeStyle;rounded=0;orthogonalLoop=1;jettySize=auto;html=1;" parent="1" source="wr6Mb2dVWBMzEhikk02v-28" target="wr6Mb2dVWBMzEhikk02v-32" edge="1">
          <mxGeometry relative="1" as="geometry" />
        </mxCell>
        <mxCell id="wr6Mb2dVWBMzEhikk02v-28" value="m&amp;gt;51" style="rhombus;whiteSpace=wrap;html=1;" parent="1" vertex="1">
          <mxGeometry x="320" y="1050" width="160" height="110" as="geometry" />
        </mxCell>
        <mxCell id="wr6Mb2dVWBMzEhikk02v-36" style="edgeStyle=orthogonalEdgeStyle;rounded=0;orthogonalLoop=1;jettySize=auto;html=1;exitX=1;exitY=0.5;exitDx=0;exitDy=0;entryX=1;entryY=0.667;entryDx=0;entryDy=0;entryPerimeter=0;" parent="1" source="wr6Mb2dVWBMzEhikk02v-30" target="wr6Mb2dVWBMzEhikk02v-34" edge="1">
          <mxGeometry relative="1" as="geometry">
            <mxPoint x="720" y="1250" as="targetPoint" />
          </mxGeometry>
        </mxCell>
        <mxCell id="wr6Mb2dVWBMzEhikk02v-30" value="&quot;E&quot;" style="shape=document;whiteSpace=wrap;html=1;boundedLbl=1;" parent="1" vertex="1">
          <mxGeometry x="520" y="1070" width="120" height="80" as="geometry" />
        </mxCell>
        <mxCell id="wr6Mb2dVWBMzEhikk02v-35" value="" style="edgeStyle=orthogonalEdgeStyle;rounded=0;orthogonalLoop=1;jettySize=auto;html=1;" parent="1" source="wr6Mb2dVWBMzEhikk02v-32" target="wr6Mb2dVWBMzEhikk02v-34" edge="1">
          <mxGeometry relative="1" as="geometry">
            <Array as="points">
              <mxPoint x="480" y="1250" />
              <mxPoint x="480" y="1250" />
            </Array>
          </mxGeometry>
        </mxCell>
        <mxCell id="wr6Mb2dVWBMzEhikk02v-32" value="&quot;KƏSİLDİNİZ&quot;" style="shape=document;whiteSpace=wrap;html=1;boundedLbl=1;" parent="1" vertex="1">
          <mxGeometry x="340" y="1220" width="120" height="80" as="geometry" />
        </mxCell>
        <mxCell id="wr6Mb2dVWBMzEhikk02v-34" value="END" style="rounded=1;whiteSpace=wrap;html=1;" parent="1" vertex="1">
          <mxGeometry x="520" y="1220" width="120" height="60" as="geometry" />
        </mxCell>
      </root>
    </mxGraphModel>
  </diagram>
</mxfile>
